<?xml version="1.0" encoding="utf-8" ?><svg xmlns="http://www.w3.org/2000/svg" xmlns:xlink="http://www.w3.org/1999/xlink" width="1264" height="848" viewBox="0 0 1264 848"><path fill="#1C1B1B" d="M0 0L1264 0L1264 848L0 848L0 0Z"/><path fill="#FEFEFE" d="M618.692 107.725C788.939 97.7654 935.012 227.727 944.924 397.973C954.836 568.219 824.831 714.254 654.58 724.118C484.395 733.978 338.428 604.038 328.52 433.86C318.612 263.681 448.513 117.68 618.692 107.725Z"/><path fill="#1C1B1B" d="M627.739 126.48C787.638 121.39 921.371 246.922 926.393 406.821C931.415 566.72 805.823 700.396 645.919 705.349C486.112 710.3 352.532 584.803 347.513 425.001C342.494 265.199 467.936 131.567 627.739 126.48Z"/><path fill="#FEFEFE" d="M543.731 213.69C577.426 210.137 596.507 239.906 593.693 271.128C593.167 276.963 591.879 281.294 590.177 286.814C596.317 286.182 600.611 285.075 606.582 283.627C591.372 265.867 593.158 233.933 615.549 223.635C621.383 220.939 628.05 220.671 634.081 222.891C643.578 226.465 647.641 233.728 651.544 242.294C653.422 241.112 655.278 239.848 657.169 238.695C669.556 231.137 684.466 234.988 691.673 247.602C694.34 252.272 695.169 255.296 696.647 260.347C701.4 258.271 705.39 256.88 710.678 256.949C717.062 256.999 723.15 259.647 727.539 264.284C734.776 271.866 735.795 280.417 735.553 290.258C742.254 289.85 747.858 289.542 753.713 293.447C766.98 302.298 768.031 321.356 759.409 333.799C752.955 343.113 747.016 345.482 736.615 347.582C741.321 359.315 745.304 370.727 746.319 383.455C749.862 427.899 731.787 492.412 716.563 533.93C708.91 554.417 701.657 571.376 687.952 588.545C653.595 631.588 584.912 629.593 562.419 575.244C544.617 532.233 573.394 499.123 564.997 456.476C562.491 445.517 555.853 434.558 549.115 425.532C523.704 391.494 517.774 346.881 547.273 312.384C497.812 301.675 495.867 224.896 543.731 213.69Z"/><path fill="#1C1B1B" d="M614.512 297.737C632.184 295.192 661.078 302.867 676.904 310.088C726.671 332.793 740.213 376.391 730.75 427.7C722.766 470.994 712.035 512.465 694.056 552.82C683.973 575.452 670.747 592.671 646.969 601.458C617.51 610.527 588.148 600.954 575.613 571.599C558.469 531.448 588.757 494.414 578.246 453.376C570.498 423.127 543.509 405.083 541.635 372.764C538.539 323.466 570.533 301.467 614.512 297.737Z"/><path fill="#FEFEFE" d="M620.145 387.498C626.004 387.764 622.27 398.924 621.372 402.776C625.274 400.66 631.162 398.084 635.608 397.836C659.945 396.475 684.486 396.928 708.859 397.203C711.097 397.228 711.906 397.446 713.413 399.011C713.528 401.006 713.723 400.07 712.685 401.887C707.002 404.66 646.219 400.52 631.97 403.76L631.184 403.943C627.14 405.527 620.025 411.557 616.244 409.666C614.593 406.135 616.879 398.667 617.777 394.664C614.265 397.981 598.009 411.89 593.668 410.763C591.313 407.922 592.039 401.452 592.113 397.595C587.976 400.096 580.805 404.766 576.074 404.539L575.647 403.822C577.206 399.883 592.119 389.417 595.995 390.43C598.346 393.592 597.45 400.072 597.278 404.212C605.532 398.764 610.804 392.135 620.145 387.498Z"/><path fill="#FEFEFE" d="M603.847 323.927C604.884 323.996 605.179 324.364 606.043 324.979C607.623 328.63 604.479 342.791 603.679 347.368C609.376 342.91 625.986 324.415 632.065 324.817C634.304 327.272 633.227 337.859 633.092 341.865C642.806 341.868 652.907 340.477 662.614 340.254C667.692 340.137 682.933 337.708 685.566 342.08L684.858 343.452C681.757 345.122 641.418 346.823 634.317 347.481C632.392 347.537 631.132 347.781 629.452 346.901C626.852 343.735 628.219 337.017 628.465 332.319C623.107 336.544 602.982 357.483 598.282 356.993C596.22 353.251 600.034 336.514 601.005 331.224C596.165 334.034 573.056 349.215 570.008 349.051L569.27 347.962L569.65 346.1C575.247 339.235 595.856 328.199 603.847 323.927Z"/><path fill="#FEFEFE" d="M655.051 358.347C661.861 359.443 662.538 367.144 667.96 373.036C676.99 364.207 677.643 355.033 688.592 369.187C692.125 373.754 699.256 365.18 705.5 365.51C707.224 366.645 706.824 366.019 707.25 367.758C705.567 370.641 701.601 371.878 698.802 373.363C688.831 378.651 685.975 373.934 679.798 367.06C676.845 370.103 674.633 373.869 670.889 376.075C663.572 380.387 659.219 369.311 656.459 364.115C653.98 367.636 651.089 372.204 647.863 374.901C636.505 378.695 583.313 377.144 568.17 377.533C566.405 377.579 562.867 377.087 561.487 375.502L561.743 374.228C563.538 372.416 564.944 371.984 567.449 372.048C576.137 372.273 584.839 372.218 593.53 372.195C610.786 372.11 628.039 371.673 645.277 370.887C649.344 366.069 649.069 363.209 655.051 358.347Z"/><path fill="#FEFEFE" d="M682.531 414.404C687.572 416.344 684.799 431.519 684.4 436.365C691.238 431.426 697.12 425.875 706.055 426.336C709.52 426.515 708.597 425.882 710.477 427.861C707.956 431.058 697.193 433.567 693.41 435.808C689.51 438.118 686.371 443.406 681.9 444.369L680.728 443.541C678.741 439.705 679.554 429.17 679.682 424.395C674.36 428.816 663.251 441.097 657.454 442.675C653.912 441.254 655.981 435.127 653.561 431.778L651.6 431.78C639.043 432.259 626.478 432.56 613.912 432.682C607.556 432.776 596.786 434.195 591.367 430.844L591.168 429.678C592.257 428.737 594.445 428.056 595.888 427.963C610.051 427.106 624.318 427.141 638.507 426.811C642.802 426.711 656.146 425.673 658.771 427.744C660.031 430.203 659.876 433.568 659.974 436.408C667.512 428.613 673.868 421.036 682.531 414.404Z"/><path fill="#FEFEFE" d="M609.375 531.86C614.137 533.709 615.157 561.899 615.523 567.788C619.063 562.187 623.4 552.58 628.011 548.435C636.513 540.792 639.564 558.954 642.088 562.371C647.766 562.393 649.285 540.045 672.404 544.577C674.235 545.873 673.661 545.171 674.559 547.251L673.868 548.392C670.609 549.903 666.89 548.931 662.893 549.966C655.885 551.782 653.465 556.26 649.978 561.922C639.805 578.227 634.785 560.292 632.536 551.298C626.897 556.651 624.307 564.8 619.999 571.174C618.11 573.969 615.953 577.781 612.418 575.504C609.867 571.373 608.369 546.574 607.664 539.86C602.993 544.433 599.555 549.867 594.569 553.957C592.509 554.235 593.236 554.425 591.564 553.537L591.445 552.033C593.564 546.223 604.058 535.368 609.375 531.86Z"/><path fill="#FEFEFE" d="M658.835 473.086L660.745 474.247C662.159 477.028 660.55 488.137 660.3 492.485C668.185 485.116 674.522 483.638 685.187 484.404C689.055 484.682 693.517 483.783 696.55 486.422L696.357 487.857C692.45 492.075 679.084 488.212 673.255 489.995C668.372 491.488 660.516 501.39 655.95 499.272C653.985 495.668 655.173 488.414 655.553 484.156L639.318 500.117C636.606 502.735 634.052 506.493 630.229 505.073C627.859 501.886 628.995 492.701 629.183 488.404C623.803 488.936 602.762 492.069 599.194 488.76L599.699 487.968C605.89 484.47 626.575 483.106 634.292 483.496C634.559 486.94 634.388 493.54 634.389 497.186C643.191 489.387 650.333 481.033 658.835 473.086Z"/><path fill="#FEFEFE" d="M670.148 455.185C675.981 455.078 701.704 453.053 704.233 457.718L703.359 459.239C700.76 460.986 680.182 460.417 675.455 460.439C661.017 460.49 646.58 460.813 632.154 461.406C626.489 461.502 601.635 463.307 599.317 458.91L600.144 457.694C603.939 455.438 661.283 455.31 670.148 455.185Z"/><path fill="#FEFEFE" d="M625.581 514.384C644.358 513.875 665.709 513.635 684.592 514.666C685.933 514.739 686.16 515.261 686.744 516.282C686.158 518.062 683.553 519.509 681.817 519.472C672.901 519.282 663.95 519.413 655.037 519.488C635.445 519.555 615.471 520.827 595.89 520.052C594.759 520.007 594.238 518.766 593.809 517.949L594.641 516.733C599.861 514.231 618.723 514.582 625.581 514.384Z"/><path fill="#1C1B1B" d="M548.749 226.697C584.296 225.128 595.189 290.713 556.069 298.954C514.863 300.15 510.275 232.815 548.749 226.697Z"/><path fill="#1C1B1B" d="M624.36 234.515C644.379 235.334 647.848 268.848 627.582 277.305C604.863 277.578 604.088 241.583 624.36 234.515Z"/><path fill="#1C1B1B" d="M667.31 248.207C688.485 246.993 688.616 280.374 669.475 286.997C649.18 288.369 648.872 256.741 667.31 248.207Z"/><path fill="#1C1B1B" d="M706.756 270.404C708.742 270.29 711.054 270.098 712.943 270.707C716.297 271.793 719.058 274.208 720.58 277.389C725.725 288.252 719.67 301.015 708.974 305.917C706.578 306.114 704.34 306.293 702.048 305.492C699.032 304.466 696.552 302.275 695.162 299.409C689.72 288.372 695.978 275.502 706.756 270.404Z"/><path fill="#1C1B1B" d="M739.765 303.052C756.363 302.345 755.295 329.139 737.872 333.795C719.509 332.074 723.449 308.353 739.765 303.052Z"/></svg>